# xmcd
#
# Track frame offsets: 
#        150
#        7141
#        19049
#        27845
#        34931
#        44995
#        59411
#        68902
#        78584
#        83062
#        92990
#        104221
#        114019
#        118718
#        121874
#        135405
#        143412
#        155738
#        166497
#        177458
#        187486
#        196067
#        205686
#        208238
#        217083
#        226477
#        236517
#        250749
#        258958
#        266908
#        275807
#        281380
#
# Disc length: 3867 seconds
#
# Revision: 0
# Processed by: cddbd v1.5.2PL0 Copyright (c) Steve Scherf et al.
# Submitted via: ExactAudioCopy v0.95b4
#
DISCID=e80f1920
DTITLE=Jim Reeves - Remember, You're Mine
DYEAR=2003
DGENRE=Country
TTITLE0=Intro To Show A
TTITLE1=April Love
TTITLE2=When Your Lover Has Gone
TTITLE3=My Heart Reminds Me
TTITLE4=I Care No More
TTITLE5=Got A Date With An Angel
TTITLE6=Til
TTITLE7=Remember, You're Mine
TTITLE8=Do Something Today
TTITLE9=My One Sin
TTITLE10=Melodie D'Amour
TTITLE11=Bon Voyage
TTITLE12=Outro
TTITLE13=Intro To Show B
TTITLE14=Rainbow
TTITLE15=I'll Remember Today
TTITLE16=Love Me To Pieces
TTITLE17=Dardanella
TTITLE18=With You On My Mind
TTITLE19=I Keep Running Away From You
TTITLE20=How Do You Say Goodbye?
TTITLE21=When Your Lover Has Gone
TTITLE22=Give Me A Friend
TTITLE23=Story Of My  Life
TTITLE24=Ca, C'est L'Amour
TTITLE25=Ivy Rose
TTITLE26=Moonglow
TTITLE27=Outro
TTITLE28=Around The World (Alt. ver.)
TTITLE29=Special Angel
TTITLE30=How Did You Think Of A Star?
TTITLE31=Goldmine In The Sky
EXTD=
EXTT0=
EXTT1=
EXTT2=
EXTT3=
EXTT4=
EXTT5=
EXTT6=
EXTT7=
EXTT8=
EXTT9=
EXTT10=
EXTT11=
EXTT12=
EXTT13=
EXTT14=
EXTT15=
EXTT16=
EXTT17=
EXTT18=
EXTT19=
EXTT20=
EXTT21=
EXTT22=
EXTT23=
EXTT24=
EXTT25=
EXTT26=
EXTT27=
EXTT28=
EXTT29=
EXTT30=
EXTT31=
PLAYORDER=
